# xmcd
#
# Track frame offsets:
#  150
#  15390
#  31705
#  45263
#  59682
#  72224
#  88038
#  102147
#  120883
#  134578
#  149859
#
# Disc length: 2230 seconds
#
# Revision: 0
# Processed by: cddbd v1.5.2PL0 Copyright (c) Steve Scherf et al.
# Submitted via: Collectorz.com_Music_Collector 6.11
#
DISCID=9008b40b
DTITLE=Olivia - Olivia
DYEAR=1900
DGENRE=Country
TTITLE0=Canby
TTITLE1=I Wanna See You Again
TTITLE2=Maybe Baby
TTITLE3=Love Forever
TTITLE4=Country Boy
TTITLE5=Love Is Enough
TTITLE6=Hello
TTITLE7=End Of Your Rope
TTITLE8=I Got A Feeling
TTITLE9=Dancin'
TTITLE10=You And Me
EXTD=
EXTT0=
EXTT1=
EXTT2=
EXTT3=
EXTT4=
EXTT5=
EXTT6=
EXTT7=
EXTT8=
EXTT9=
EXTT10=
PLAYORDER=
